<svg width="129" height="158" viewBox="0 0 129 158" fill="none" xmlns="http://www.w3.org/2000/svg">
    <g opacity=".2" fill="#909094">
        <path d="M99.147 130.139c-6.564 0-13.062-.82-19.424-2.453-9.632-2.474-18.7-6.739-26.95-12.674-15.849-11.403-27.454-28.32-31.834-46.418-4.31-17.81-5.967-33.328-4.916-46.127C17.055 9.895 20.72-.355 26.913-7.993c9.901-12.211 26.443-18.066 49.18-17.397 22.165.652 41.849 5.745 56.93 14.731 17.59 10.484 28.83 25.922 33.41 45.887 2.608 11.37 2.865 23.447.748 34.922-2.066 11.188-6.388 21.857-12.5 30.849-10.548 15.528-25.931 25.542-43.312 28.202-4.09.625-8.169.938-12.222.938zM72.643-24.425c-20.646 0-35.753 5.736-44.945 17.071C15.38 7.838 13.439 33.31 21.924 68.354c7.651 31.6 37.741 60.789 76.954 60.792 4.02 0 8.134-.308 12.332-.951 17.097-2.616 32.236-12.477 42.625-27.766 12.407-18.26 16.744-42.55 11.602-64.975-8.393-36.6-40.968-58.407-89.378-59.83-1.153-.032-2.295-.049-3.416-.049z"/>
        <path d="M109.806 128.943c-2.219 0-4.487-.058-6.813-.177-21.831-1.101-42.813-7.685-59.085-18.537-7.874-5.252-14.221-11.217-18.868-17.735-4.806-6.741-7.564-13.76-8.195-20.87-2.092-23.522 1.477-42.81 10.912-58.969C32.306 4.865 38.14-2.154 45.594-8.799c7.056-6.292 15.394-12.098 25.49-17.74 10.049-5.618 20.292-6.91 30.449-3.836 10.805 3.27 21.767 11.57 32.584 24.67 8.853 10.718 17.848 24.96 26.739 42.323l.029.067c11.176 32.761 10.846 57.324-.985 73.011-5.383 7.135-13.158 12.364-23.112 15.542-7.72 2.462-16.773 3.705-26.982 3.705zM71.579-25.653c-41.646 23.285-57.712 52.35-53.726 97.19 2.558 28.758 40.774 53.976 85.189 56.215 2.274.116 4.496.171 6.663.171 23.048 0 40.041-6.457 49.381-18.838 11.61-15.395 11.894-39.633.846-72.038-8.851-17.283-17.799-31.449-26.6-42.106-10.687-12.94-21.486-21.133-32.095-24.343-9.881-2.99-19.86-1.73-29.658 3.749z"/>
        <path d="M75.878 134.734c-12.164 0-23.804-3.763-34.766-11.269-11.843-7.216-21.223-15.255-27.88-23.9-6.338-8.23-10.38-17.228-12.013-26.744-1.541-8.986-.97-18.673 1.692-28.79 2.494-9.48 6.9-19.597 13.088-30.072l.014-.023C22.14 4.767 29.646-2.794 38.328-8.533c8.129-5.373 17.063-9.02 26.553-10.84 18.236-3.493 37.26.206 52.199 10.154 14.427 9.609 25.67 19.516 33.413 29.453 7.605 9.756 12.019 19.771 13.12 29.765 1.831 16.62-5.402 33.567-21.498 50.375-15.362 16.04-31.993 26.993-48.103 31.671-6.159 1.794-12.21 2.689-18.134 2.689zM16.865 14.489C-9.95 59.881-1.61 96.251 41.65 122.604l.023.015c29.835 20.432 66.18 12.068 99.708-22.944 15.878-16.579 23.019-33.256 21.223-49.56-2.193-19.902-17.7-39.577-46.087-58.485C87.816-27.484 42.697-24.16 16.865 14.49z"/>
        <path d="M83.92 146.266c-14.013 0-29.004-7.17-46.643-22.202C20.37 109.658 8.163 90.736 2.902 70.782.205 60.559-.618 50.35.457 40.434a75.166 75.166 0 0 1 9.548-29.43c10.838-18.946 28.96-32.126 49.717-36.159 19.693-3.827 39.343 1.002 55.331 13.601 17.966 14.157 30.565 34.169 35.469 56.35 4.673 21.122 1.684 41.806-8.201 56.757-18.346 27.746-35.093 41.828-52.709 44.319-1.88.261-3.777.394-5.692.394zM72.877-25.419c-4.293 0-8.627.418-12.964 1.26-20.466 3.978-38.337 16.976-49.03 35.667C-9.21 46.63 1.914 92.598 37.931 123.294c17.446 14.867 32.228 21.958 45.992 21.958 1.865 0 3.713-.13 5.547-.388 17.306-2.445 33.83-16.388 52.002-43.873 9.734-14.72 12.669-35.122 8.057-55.974-4.855-21.953-17.324-41.76-35.108-55.772-12.228-9.64-26.634-14.664-41.544-14.664z"/>
        <path d="M94.493 120.203c-1.741 0-3.514-.035-5.325-.107-20.51-.82-40.18-6.617-55.388-16.319-7.361-4.695-13.283-10.055-17.599-15.927-4.47-6.077-7.008-12.427-7.544-18.873-1.775-21.31 1.742-38.824 10.745-53.552 4.34-7.098 9.881-13.508 16.944-19.592C43.01-9.926 50.895-15.253 60.428-20.45c9.714-5.296 19.58-6.48 29.326-3.529 10.006 3.033 20.116 10.513 30.049 22.231 8.141 9.603 16.388 22.324 24.511 37.813l.029.07c10.052 29.056 9.742 51.063-.916 65.415-5.046 6.793-12.424 11.807-21.932 14.904-7.662 2.492-16.727 3.749-27.002 3.749zM60.913-19.561C21.6 1.867 6.267 28.322 9.648 68.893c2.166 26.008 37.856 48.523 79.56 50.189 1.77.069 3.508.107 5.212.107 22.691 0 39.29-6.263 48.19-18.248 10.443-14.058 10.706-35.739.785-64.441-8.083-15.409-16.281-28.057-24.369-37.593-9.806-11.568-19.757-18.94-29.572-21.915-9.475-2.874-19.079-1.713-28.543 3.447z"/>
        <path d="M40.146 157.266c11.341-3.259 22.596-6.927 33.395-11.718 10.681-4.737 20.91-10.617 29.861-18.167 8.691-7.332 15.954-16.231 21.692-26.031 5.765-9.85 10.024-20.56 12.926-31.585 2.822-10.722 4.578-21.895 3.972-33.005-.582-10.672-3.508-21.384-10.191-29.896-3.601-4.585-8.172-8.328-13.106-11.396a78.897 78.897 0 0 0-16.535-7.77c-5.945-1.99-12.21-3.189-18.494-3.047-5.843.133-11.573 1.506-16.9 3.893C56.037-6.653 47.511 1.92 41.361 11.806c-3.206 5.151-5.857 10.679-7.937 16.377-2.193 6.002-3.696 12.312-3.914 18.717-.388 11.384 3.914 22.089 10.698 31.078 6.814 9.03 15.768 16.608 25.432 22.436 9.85 5.939 21.191 10.096 32.82 9.922 10.095-.151 20.367-3.528 28.018-10.232 8.288-7.26 12.13-17.987 11.88-28.859-.257-11.17-4.478-22.245-11.471-30.93-7.15-8.885-17.587-15.026-29.068-15.887-10.643-.796-20.843 3.543-28.358 10.985-7.934 7.857-12.436 18.558-13.033 29.668-.33 6.138.527 12.364 2.567 18.166 1.83 5.209 4.638 10.2 8.72 13.98 8.123 7.521 20.414 8.494 30.405 4.439 10.368-4.207 18.291-12.999 23.535-22.68 5.597-10.34 8.343-22.21 7.853-33.955-.469-11.321-3.853-23.152-11.7-31.614-7.408-7.987-19.14-12.288-29.72-8.586-5.417 1.894-10.22 5.431-14.278 9.43-3.876 3.82-7.13 8.264-9.688 13.061-5.368 10.073-7.592 21.553-6.825 32.915.417 6.159 1.663 12.257 3.604 18.114 1.845 5.562 4.227 11.145 7.468 16.046 2.73 4.131 6.431 8.109 11.347 9.488 5.166 1.448 10.284-.574 14.317-3.81 4.484-3.6 7.908-8.572 10.617-13.595 2.839-5.26 4.899-10.939 6.214-16.767 2.624-11.654 2.381-24.265-2.402-35.342-4.154-9.621-12.045-17.735-21.947-21.406-4.976-1.845-10.906-2.78-16.075-1.213-5.162 1.564-8.626 6.002-10.084 11.057-1.764 6.118-.541 12.633.896 18.685a130.985 130.985 0 0 0 5.79 18.274 131.17 131.17 0 0 0 8.254 17.025c3.056 5.278 6.538 10.35 10.713 14.812 3.728 3.986 8.296 8.033 13.94 8.713 5.657.684 11.031-2.48 14.533-6.72 3.746-4.534 5.982-10.293 7.668-15.87a72.841 72.841 0 0 0 3.03-18.015c.504-11.938-1.891-24.097-7.253-34.8-4.864-9.711-12.503-18.477-22.672-22.765-10.098-4.258-22.326-4-31.31 2.73-8.502 6.37-12.989 16.888-13.84 27.268-.54 6.561.237 13.169 1.668 19.574 1.402 6.275 3.352 12.477 5.73 18.45 4.264 10.71 10.71 20.98 20.947 26.837 4.792 2.744 10.325 4.395 15.878 4.166 5.803-.24 10.904-2.83 14.917-6.961 3.907-4.021 6.744-9.053 8.879-14.204 2.308-5.57 3.728-11.474 4.443-17.453 1.42-11.855.438-24.56-4.183-35.653-4.171-10.011-11.77-18.679-21.99-22.735-5.403-2.143-11.168-2.624-16.898-1.74-6.231.961-12.326 3.227-17.995 5.944-5.371 2.575-10.452 5.831-14.789 9.93-4.047 3.824-7.419 8.367-9.954 13.323a49.064 49.064 0 0 0-4.2 33.054c2.5 11.133 8.94 21.869 18.546 28.256 9.276 6.168 21.01 7 31.553 3.99 10.733-3.066 19.762-10.044 26.617-18.726 7.164-9.08 12.265-19.885 15.556-30.936 1.828-6.139 3.03-12.492 3.262-18.903.203-5.61-.11-11.66-2.225-16.93-1.735-4.324-5-8.157-9.896-8.658-5.652-.576-10.849 3.3-14.647 7.048-7.894 7.793-13.656 17.677-16.776 28.309a65.778 65.778 0 0 0-2.642 16.443c-.173 5.565.293 11.277 1.976 16.608.817 2.592 1.938 5.104 3.45 7.37 1.495 2.241 3.395 4.472 5.797 5.77 5.15 2.778 10.423-.701 13.853-4.54 3.896-4.356 6.961-9.646 9.377-14.945a69.215 69.215 0 0 0 5.252-16.967c1.837-10.655 2.179-24.58-7.459-31.77-9.479-7.074-21.594-.035-28.56 7.294-7.055 7.416-11.25 17.234-13.02 27.228-.889 5.009-1.25 10.174-.86 15.252.374 4.859 1.452 9.803 3.882 14.074 2.489 4.371 6.472 7.653 11.408 8.83 5.377 1.28 11.078.214 15.997-2.153 9.539-4.586 16.072-13.853 20.038-23.395 4.643-11.17 6.338-24.027 2.193-35.618-1.782-4.98-4.557-9.63-8.288-13.395-3.943-3.98-8.908-6.779-14.294-8.288-11.564-3.239-23.74-.522-34.145 5-10.218 5.42-20.004 13.392-25.328 23.85-2.697 5.301-4.256 11.266-3.998 17.24.24 5.6 2.15 10.993 5.102 15.727a43.616 43.616 0 0 0 11.73 12.43c4.979 3.52 10.796 5.342 16.9 5.247 11.999-.192 22.511-7.15 30.307-15.812 7.755-8.615 13.439-19.264 16.061-30.57 1.242-5.366 1.741-11.078.469-16.487-1.217-5.177-4.204-9.658-8.624-12.636-9.925-6.683-22.489-4.598-32.77.046-10.831 4.89-20.681 12.17-28.763 20.864-7.376 7.934-14.795 18.644-13.184 30.07 1.602 11.376 12.558 18.653 22.387 22.662 10.75 4.383 22.564 5.568 34.085 5.455 13.239-.128 26.469-1.776 39.514-3.963 12.506-2.098 24.902-4.78 37.286-7.494.547-.12.316-.96-.232-.838-12.764 2.799-25.545 5.563-38.442 7.686-12.543 2.065-25.258 3.604-37.981 3.737-11.133.119-22.498-.974-32.955-5.009-9.737-3.757-20.898-10.785-22.744-21.935-.91-5.496.606-11.113 3.025-16.032 2.505-5.09 6.002-9.588 9.852-13.728 7.801-8.39 17.216-15.391 27.596-20.27 10.13-4.762 22.581-7.193 32.564-.712 4.522 2.934 7.491 7.474 8.633 12.723 1.167 5.365.579 11.017-.719 16.3-2.703 11.009-8.256 21.345-15.872 29.732-7.683 8.464-18.016 15.272-29.8 15.344-6.078.038-11.756-1.897-16.646-5.48-4.54-3.326-8.494-7.645-11.364-12.483-2.837-4.777-4.56-10.18-4.578-15.76-.017-5.973 1.767-11.874 4.679-17.062 5.568-9.908 15.17-17.474 25.168-22.578C80.094 5.966 92.035 3.57 103.232 7c5.281 1.617 10.061 4.534 13.821 8.587 3.592 3.873 6.211 8.613 7.801 13.639 3.63 11.48 1.634 24.035-3.137 34.875-4.039 9.178-10.588 17.976-19.974 22.139-5.096 2.26-11.087 3.041-16.414 1.124-4.69-1.69-8.068-5.51-10.061-9.98C73.292 72.95 72.548 68 72.44 63.18a62.895 62.895 0 0 1 1.457-14.835c2.104-9.594 6.527-18.9 13.697-25.745 3.839-3.664 8.572-6.86 13.784-8.11 2.798-.676 5.75-.696 8.487.266 2.425.851 4.552 2.416 6.264 4.316 3.916 4.342 5.339 10.22 5.556 15.933.223 5.817-.519 11.703-1.906 17.35a68.465 68.465 0 0 1-6.194 16.095 67.365 67.365 0 0 1-4.479 7.196c-1.671 2.343-3.496 4.629-5.802 6.384-2.167 1.649-4.876 2.874-7.648 2.303-2.862-.59-5.101-2.868-6.799-5.118-3.288-4.36-4.922-9.749-5.64-15.105-1.434-10.666.243-21.753 4.22-31.715A65.735 65.735 0 0 1 95.23 18.24c3.187-4.398 6.976-8.81 11.547-11.814 2.301-1.512 4.937-2.726 7.726-2.836a9.627 9.627 0 0 1 6.965 2.604c3.612 3.375 4.872 8.642 5.42 13.37 1.428 12.366-1.402 24.84-5.991 36.28-4.021 10.026-9.548 19.659-17.216 27.347-7.622 7.642-17.396 13.027-28.205 14.288-5.292.617-10.715.24-15.805-1.385-5.273-1.683-9.965-4.742-13.862-8.65-8.042-8.062-12.784-19.256-13.502-30.577-.696-10.97 2.54-21.959 8.893-30.913 6.712-9.461 16.698-15.692 27.442-19.673 5.95-2.204 12.28-3.841 18.674-3.366 5.18.385 10.171 2.23 14.54 5.006 9.452 6.008 15.382 15.921 18.169 26.593 2.929 11.214 3.018 23.5.527 34.804-1.257 5.698-3.259 11.24-6.13 16.327-2.621 4.646-6.034 9.082-10.663 11.871-10.052 6.063-22.773 1.521-30.945-5.617-8.806-7.694-13.67-18.708-17.199-29.615-3.777-11.674-6.52-24.435-3.618-36.623 2.37-9.942 8.604-19.484 18.352-23.43C80.53-1.89 92.452.372 101.35 6.46c8.9 6.09 15.059 15.574 18.72 25.585 4.073 11.136 5.27 23.3 3.561 35.027-.846 5.796-2.388 11.503-4.635 16.912-2.196 5.284-5.27 10.565-10.366 13.508-2.416 1.396-5.188 2.199-7.989 2.01-2.825-.19-5.47-1.404-7.784-2.98-4.812-3.277-8.732-8.045-12.069-12.755-6.984-9.864-12.21-21.128-15.918-32.608-1.889-5.849-3.636-11.956-4.296-18.08-.614-5.689.092-11.828 3.89-16.364 3.833-4.577 9.826-5.388 15.452-4.566 5.003.733 9.754 2.73 13.917 5.583 8.972 6.147 14.641 15.854 16.773 26.41 2.312 11.444.8 23.64-3.323 34.5-2.077 5.47-4.916 10.684-8.52 15.298-3.232 4.14-7.508 8.138-12.798 9.273-11.451 2.457-18.308-10.527-21.979-19.168-4.667-10.988-6.88-23.12-5.611-35.033 1.13-10.602 5.165-20.973 11.776-29.366C76.8 11.204 86.777 3.498 98.072 4.388c11.162.88 20.264 8.716 25.154 18.424 5.072 10.075 6.367 21.985 4.948 33.082-1.446 11.281-5.846 22.312-12.912 31.258-6.636 8.404-16.025 15.113-26.97 15.919-5.313.391-10.785-.568-15.455-3.193-4.791-2.691-8.378-7.03-10.857-11.874-5.397-10.536-6.133-23.355-2.552-34.578 3.079-9.652 9.635-18.242 18.392-23.412 4.354-2.573 9.232-4.244 14.279-4.7 5.646-.506 11.361.427 16.634 2.48 10.327 4.018 18.386 12.338 23.314 22.136 4.907 9.757 6.938 21.312 4.337 32.028-1.266 5.214-3.674 10.127-7.199 14.189-3.181 3.664-7.141 6.59-11.478 8.74-9.275 4.6-19.948 5.568-30.029 3.502-11.214-2.297-21.507-7.931-30.516-14.86C48.677 87 40.937 79.083 35.858 69.581c-2.48-4.643-4.264-9.66-5.049-14.875-.924-6.139-.377-12.422 1.063-18.439 1.422-5.939 3.673-11.677 6.397-17.135 2.57-5.157 5.637-10.084 9.304-14.534 7.153-8.68 16.773-15.542 27.845-18.077 12.011-2.749 24.456.383 35.348 5.597 10.061 4.815 19.221 11.628 24.511 21.669 4.916 9.33 6.304 20.128 5.91 30.554-.406 10.773-2.648 21.512-5.907 31.767-3.314 10.429-7.911 20.478-13.934 29.63-6.089 9.255-13.653 17.459-22.48 24.16-8.966 6.807-18.99 12.115-29.36 16.434-9.624 4.006-19.563 7.199-29.578 10.075-.55.174-.324 1.014.218.858z"/>
    </g>
</svg>
