<svg xmlns="http://www.w3.org/2000/svg" width="61.6" height="61.6" viewBox="0 0 61.6 61.6">
    <g data-name="Group 10977">
        <path data-name="Path 28082" d="M33.355 2.5A30.8 30.8 0 1 0 64.09 33.332 30.8 30.8 0 0 0 33.355 2.5zm0 58.419a27.538 27.538 0 1 0 0-.1z" transform="translate(-2.49 -2.5)" style="fill:#f1c452"/>
        <path d="M150.857 2.078a15.73 15.73 0 0 1-1.729 7.492 13.261 13.261 0 0 1-4.326 4.976 13.261 13.261 0 0 1 4.326 4.976 15.73 15.73 0 0 1 1.729 7.492h1.558a.5.5 0 0 1 .519.519v1.039a.5.5 0 0 1-.519.519h-23.9a.5.5 0 0 1-.519-.519v-1.04a.5.5 0 0 1 .519-.519h1.558a15.73 15.73 0 0 1 1.729-7.492 13.261 13.261 0 0 1 4.326-4.976 13.261 13.261 0 0 1-4.326-4.976 15.73 15.73 0 0 1-1.729-7.492h-1.558a.5.5 0 0 1-.515-.519V.519a.5.5 0 0 1 .519-.519h23.9a.5.5 0 0 1 .519.519v1.039a.5.5 0 0 1-.519.519zm-8.669 11.493a7.867 7.867 0 0 0 2.419-1.5 11.838 11.838 0 0 0 2.1-2.476 12.8 12.8 0 0 0 1.5-3.409 14.707 14.707 0 0 0 .568-4.107h-16.619a14.708 14.708 0 0 0 .568 4.107 12.805 12.805 0 0 0 1.5 3.409 11.838 11.838 0 0 0 2.1 2.476 7.867 7.867 0 0 0 2.419 1.5 1.037 1.037 0 0 1 0 1.948 7.867 7.867 0 0 0-2.419 1.5 11.838 11.838 0 0 0-2.1 2.476 12.805 12.805 0 0 0-1.5 3.409 14.708 14.708 0 0 0-.568 4.107h16.623a14.707 14.707 0 0 0-.568-4.107 12.8 12.8 0 0 0-1.5-3.409 11.838 11.838 0 0 0-2.1-2.476 7.867 7.867 0 0 0-2.419-1.5 1.037 1.037 0 0 1 0-1.948z" transform="translate(-109.668 18.285)" style="fill:#f1c452"/>
    </g>
</svg>
