<svg xmlns="http://www.w3.org/2000/svg" width="273.022" height="107.092" viewBox="0 0 273.022 107.092">
    <g data-name="Group 11432">
        <g data-name="Group 11434">
            <path data-name="Path 512" d="M488.288 352.366H235.114a8.935 8.935 0 0 1-8.924-8.924V316.2a8.935 8.935 0 0 1 8.924-8.924h253.174a8.935 8.935 0 0 1 8.924 8.924v27.243a8.935 8.935 0 0 1-8.924 8.924zm-253.174-44.152a7.994 7.994 0 0 0-7.985 7.985v27.243a7.994 7.994 0 0 0 7.985 7.986h253.174a7.994 7.994 0 0 0 7.985-7.985V316.2a7.994 7.994 0 0 0-7.985-7.985z" transform="translate(-225.19 -306.274)" style="fill:#ccc;stroke:#909094;stroke-width:2px"/>
            <path data-name="Path 512" d="M488.288 352.366H235.114a8.935 8.935 0 0 1-8.924-8.924V316.2a8.935 8.935 0 0 1 8.924-8.924h253.174a8.935 8.935 0 0 1 8.924 8.924v27.243a8.935 8.935 0 0 1-8.924 8.924zm-253.174-44.152a7.994 7.994 0 0 0-7.985 7.985v27.243a7.994 7.994 0 0 0 7.985 7.986h253.174a7.994 7.994 0 0 0 7.985-7.985V316.2a7.994 7.994 0 0 0-7.985-7.985z" transform="translate(-225.19 -246.274)" style="fill:#ccc;stroke:#909094;stroke-width:2px"/>
        </g>
        <g data-name="Group 11433">
            <path data-name="Path 517" d="M293.31 351.447a15.533 15.533 0 1 1 15.533-15.533 15.533 15.533 0 0 1-15.533 15.533z" transform="translate(-249.177 -312.368)" style="fill:#909094"/>
            <path data-name="Path 518" d="M525.84 366.586H360.034a3.758 3.758 0 0 1 0-7.516H525.84a3.758 3.758 0 0 1 0 7.516z" transform="translate(-285.677 -330.357)" style="fill:#909094"/>
            <path data-name="Path 519" d="M471.818 336.737H360.027a3.758 3.758 0 0 1 0-7.516h111.79a3.758 3.758 0 1 1 0 7.516z" transform="translate(-285.675 -316.478)" style="fill:#909094"/>
            <path data-name="Path 517" d="M293.31 351.447a15.533 15.533 0 1 1 15.533-15.533 15.533 15.533 0 0 1-15.533 15.533z" transform="translate(-249.177 -252.368)" style="fill:#909094"/>
            <path data-name="Path 518" d="M525.84 366.586H360.034a3.758 3.758 0 0 1 0-7.516H525.84a3.758 3.758 0 0 1 0 7.516z" transform="translate(-285.677 -270.357)" style="fill:#909094"/>
            <path data-name="Path 519" d="M471.818 336.737H360.027a3.758 3.758 0 0 1 0-7.516h111.79a3.758 3.758 0 1 1 0 7.516z" transform="translate(-285.675 -256.478)" style="fill:#909094"/>
        </g>
    </g>
</svg>
