<svg xmlns="http://www.w3.org/2000/svg" width="84.868" height="151.107" viewBox="0 0 84.868 151.107">
    <path data-name="Path 28634" d="M234.218 36.436h9.463a2.218 2.218 0 0 0 0-4.436h-9.463a2.218 2.218 0 0 0 0 4.436z" transform="translate(-196.515 -22.537)" style="fill:#909094"/>
    <path data-name="Path 28635" d="M210.219 36.436a2.216 2.216 0 1 0-1.57-.651 2.226 2.226 0 0 0 1.57.651z" transform="translate(-179.613 -22.537)" style="fill:#909094"/>
    <path data-name="Path 28636" d="M244.583 456a4.583 4.583 0 1 0 4.583 4.583 4.589 4.589 0 0 0-4.583-4.583zm0 4.731a.148.148 0 1 1 .148-.148.148.148 0 0 1-.148.148z" transform="translate(-202.149 -321.157)" style="fill:#909094"/>
    <path data-name="Path 28637" d="M196.868 47.165V11.68A11.694 11.694 0 0 0 185.188 0H123.68A11.694 11.694 0 0 0 112 11.68v127.747a11.694 11.694 0 0 0 11.68 11.681h61.507a11.694 11.694 0 0 0 11.68-11.681V47.165zm-11.828-6.474 6.381 6.381a4.867 4.867 0 0 1-6.381-4.638zm0-6.273v-5.555l7.393 7.393v5.555zm7.393-4.436-6.622-6.622h6.622zM180.6 23.51v18.927a4.879 4.879 0 0 1-9.758 0V23.509c0-.05 0-.1-.007-.148h9.773c0 .049-.007.1-.007.149zm-14.19 18.924a4.854 4.854 0 0 1-.24 1.5l-9.519-9.519v-5.552l9.758 9.758v3.813zm-9.758-1.743 6.382 6.383a4.873 4.873 0 0 1-6.382-4.64zm9.758-17.182v8.84l-8.988-8.988h9a1.043 1.043 0 0 0-.012.148zm-14.194 0V42.437a4.879 4.879 0 0 1-9.758 0V23.509c0-.05 0-.1-.007-.148h9.773a1.834 1.834 0 0 0-.008.149zm-14.194 18.925a4.854 4.854 0 0 1-.24 1.5l-9.519-9.519v-5.552l9.758 9.758v3.813zm-9.758-1.743 6.382 6.383a4.873 4.873 0 0 1-6.382-4.64zm9.758-17.182v8.84l-8.988-8.988h9a1.043 1.043 0 0 0-.012.148zm-14.194 0V42.437a4.88 4.88 0 0 1-5.145 4.872 4.427 4.427 0 0 1-2.248-.754V23.361h7.4c-.003.049-.007.099-.007.149zm-7.393 27.88a8.8 8.8 0 0 0 2.016.346q.254.013.505.013a9.3 9.3 0 0 0 7.091-3.285 9.3 9.3 0 0 0 14.192 0 9.3 9.3 0 0 0 14.194 0 9.3 9.3 0 0 0 14.194 0 9.3 9.3 0 0 0 14.194 0 9.31 9.31 0 0 0 9.611 2.943v76.342h-76V51.39zm7.245-46.953h61.507a7.253 7.253 0 0 1 7.245 7.245v7.245h-76V11.68a7.253 7.253 0 0 1 7.248-7.244zm61.507 142.236H123.68a7.253 7.253 0 0 1-7.245-7.245v-7.245h76v7.245a7.253 7.253 0 0 1-7.247 7.245z" style="fill:#909094" transform="translate(-112)"/>
    <path data-name="Path 28638" d="M207.166 228.731h-36.514l-1.076-2.114a4.6 4.6 0 0 0-4.141-2.617h-3.218a2.218 2.218 0 1 0 0 4.436h3.218a.148.148 0 0 1 .134.086l.038.077 11.639 22.855a9.3 9.3 0 0 0 3.2 3.746l-2.918 4.377a6.949 6.949 0 1 0 5.472 9.075h12.85a6.949 6.949 0 1 0 0-4.436H183a6.955 6.955 0 0 0-1.531-2.546l3.268-4.9a9.239 9.239 0 0 0 .952.055h14.385a9.325 9.325 0 0 0 9.315-9.315v-16.56a2.218 2.218 0 0 0-2.223-2.219zm-30.754 40.216a2.514 2.514 0 1 1 2.514-2.514 2.516 2.516 0 0 1-2.514 2.515zm26.022-5.027a2.514 2.514 0 1 1-2.514 2.514 2.516 2.516 0 0 1 2.514-2.513zm2.514-16.412a4.885 4.885 0 0 1-4.879 4.879h-14.385a4.893 4.893 0 0 1-4.43-2.834l-.037-.077-8.306-16.31h32.037z" transform="translate(-145.806 -157.761)" style="fill:#909094"/>
</svg>
